<?xml version="1.0" encoding="UTF-8"?>
<svg version="1.1" xmlns="http://www.w3.org/2000/svg" width="387" height="387">
<path d="M0 0 C9.09684172 1.79206075 9.09684172 1.79206075 11.26171875 4.6875 C12 6.5625 12 6.5625 13 10 C13.66 10.66 14.32 11.32 15 12 C14.9765625 14.1640625 14.9765625 14.1640625 14.625 16.625 C14.51414062 17.44226563 14.40328125 18.25953125 14.2890625 19.1015625 C14.19367188 19.72804688 14.09828125 20.35453125 14 21 C11.36 21.66 8.72 22.32 6 23 C5.89042969 23.65226562 5.78085937 24.30453125 5.66796875 24.9765625 C4.74501767 30.06404891 3.83498513 34.5774232 1 39 C-0.485 39.495 -0.485 39.495 -2 40 C-2.33 40.66 -2.66 41.32 -3 42 C-3.66 42 -4.32 42 -5 42 C-5.33 42.99 -5.66 43.98 -6 45 C-7.65848177 46.01351664 -9.32665961 47.01120795 -11 48 C-14.57203877 51.15668542 -16.33171954 53.59097307 -18 58 C-18.99 58.66 -19.98 59.32 -21 60 C-20.5978125 60.8353125 -20.5978125 60.8353125 -20.1875 61.6875 C-20 64 -20 64 -22.1875 66.6875 C-25.923765 69.75954011 -28.90917711 70.06989238 -33.625 70.5 C-34.49511719 70.58378906 -35.36523438 70.66757813 -36.26171875 70.75390625 C-38.09667869 70.91881706 -39.93269432 71.07235287 -41.76953125 71.21484375 C-42.64996094 71.28832031 -43.53039062 71.36179687 -44.4375 71.4375 C-45.24058594 71.49808594 -46.04367187 71.55867188 -46.87109375 71.62109375 C-49.2917619 71.90538838 -49.2917619 71.90538838 -52 74 C-54.5710005 74.31181471 -57.04468505 74.51574056 -59.625 74.625 C-60.37193115 74.65932129 -61.1188623 74.69364258 -61.88842773 74.72900391 C-63.46200456 74.79582455 -65.03584214 74.85673371 -66.60986328 74.91210938 C-68.18420468 74.9700014 -69.75819031 75.03874313 -71.33154297 75.11914062 C-87.36821567 75.92627536 -87.36821567 75.92627536 -94 70 C-94 69.34 -94 68.68 -94 68 C-94.99 68.33 -95.98 68.66 -97 69 C-99.38254272 68.75146137 -101.75763363 68.42836571 -104.125 68.0625 C-108.49111704 67.41689158 -112.76387083 66.86364976 -117.1875 66.9375 C-121 67 -121 67 -123.11328125 66.44140625 C-125.07402915 65.77067773 -125.07402915 65.77067773 -127 67 C-128.52486704 67.06055363 -130.05241255 67.06032493 -131.578125 67.02734375 C-132.49207031 67.01509766 -133.40601563 67.00285156 -134.34765625 66.99023438 C-136.26700776 66.95536056 -138.18628928 66.91636625 -140.10546875 66.87304688 C-145.20653032 66.81223478 -149.19485553 67.07794221 -154 69 C-158.16473538 69.38562365 -161.00839194 69.09308533 -164.75 67.375 C-169.22834802 65.5126309 -172.61511557 66.39762757 -177.234375 67.44921875 C-181.21734205 68.24243676 -184.95045703 68.1327719 -189 68 C-189.33 68.66 -189.66 69.32 -190 70 C-190.59167969 69.98839844 -191.18335938 69.97679688 -191.79296875 69.96484375 C-196.82347966 69.87525665 -196.82347966 69.87525665 -201.75 70.75 C-202.4925 70.8325 -203.235 70.915 -204 71 C-204.763125 70.360625 -205.52625 69.72125 -206.3125 69.0625 C-210.0788764 66.17202509 -212.32898134 66.77027777 -217 67 C-217.66 66.67 -218.32 66.34 -219 66 C-224.37689567 65.45069042 -228.64079868 65.45814892 -233 69 C-233.33 69.66 -233.66 70.32 -234 71 C-234.99 71 -235.98 71 -237 71 C-237 71.66 -237 72.32 -237 73 C-237.66 73 -238.32 73 -239 73 C-239 73.66 -239 74.32 -239 75 C-239.66 75 -240.32 75 -241 75 C-241.185625 76.175625 -241.185625 76.175625 -241.375 77.375 C-242 80 -242 80 -244 82 C-244.46162427 84.43252661 -244.46162427 84.43252661 -244.625 87.125 C-244.69976562 88.03507812 -244.77453125 88.94515625 -244.8515625 89.8828125 C-244.92503906 90.93082031 -244.92503906 90.93082031 -245 92 C-246.485 92.495 -246.485 92.495 -248 93 C-247.67 93.99 -247.34 94.98 -247 96 C-247.31324219 96.77214844 -247.62648438 97.54429688 -247.94921875 98.33984375 C-251.00060074 106.06471785 -247.68177159 117.44228007 -245 125 C-244.34 125.33 -243.68 125.66 -243 126 C-243 126.66 -243 127.32 -243 128 C-242.34 128 -241.68 128 -241 128 C-239.68 130.31 -238.36 132.62 -237 135 C-236.01 135 -235.02 135 -234 135 C-233.67 135.66 -233.34 136.32 -233 137 C-231.88625 137.2475 -230.7725 137.495 -229.625 137.75 C-226 139 -226 139 -224.1875 141.875 C-223.5996875 143.421875 -223.5996875 143.421875 -223 145 C-222.62875 145.680625 -222.2575 146.36125 -221.875 147.0625 C-221 149 -221 149 -220.5625 151.5625 C-219.92484572 154.32566853 -219.04454857 155.13323826 -217 157 C-217 157.66 -217 158.32 -217 159 C-216.38511719 158.98839844 -215.77023438 158.97679687 -215.13671875 158.96484375 C-214.32847656 158.95582031 -213.52023438 158.94679687 -212.6875 158.9375 C-211.48673828 158.92009766 -211.48673828 158.92009766 -210.26171875 158.90234375 C-208 159 -208 159 -205 160 C-204.01 159.835 -203.02 159.67 -202 159.5 C-199 159 -199 159 -196 160 C-190.92435021 154.00401451 -190.92435021 154.00401451 -187.25 147.125 C-186.08252072 144.2063018 -185.29885737 142.99900641 -183 141 C-182.34 140.01 -181.68 139.02 -181 138 C-179.625 136.3125 -179.625 136.3125 -178 135 C-176.68 135 -175.36 135 -174 135 C-173.67 133.02 -173.34 131.04 -173 129 C-171.33333333 129 -169.66666667 129 -168 129 C-166.9935725 130.66279327 -165.99414593 132.32983484 -165 134 C-158.19010688 138.53992874 -150.70628678 137.10089811 -143 136 C-142.67 135.01 -142.34 134.02 -142 133 C-141.33333333 131 -140.66666667 129 -140 127 C-125.25 127 -125.25 127 -118 129 C-117.2575 129.185625 -116.515 129.37125 -115.75 129.5625 C-114.88375 129.7790625 -114.88375 129.7790625 -114 130 C-114 129.34 -114 128.68 -114 128 C-113.01 127.67 -112.02 127.34 -111 127 C-112.32 127 -113.64 127 -115 127 C-115 125.35 -115 123.7 -115 122 C-114.05125 121.87625 -113.1025 121.7525 -112.125 121.625 C-108.91332809 121.28312823 -108.91332809 121.28312823 -107 119 C-105 119 -103 119 -101 119 C-100.34 118.34 -99.68 117.68 -99 117 C-92.67741935 116.66129032 -92.67741935 116.66129032 -90 118 C-88.5219324 118.10096856 -87.04244883 118.18195638 -85.5625 118.25 C-81.26985524 118.70402973 -81.26985524 118.70402973 -79.0625 121.125 C-77.85897162 124.38160621 -76.85755185 127.63575811 -76 131 C-76.33 131 -76.66 131 -77 131 C-77.0825 132.093125 -77.165 133.18625 -77.25 134.3125 C-78 138 -78 138 -80 139.75 C-80.99 140.36875 -80.99 140.36875 -82 141 C-82.33 141.99 -82.66 142.98 -83 144 C-86.97236879 143.43251874 -89.7943528 142.44641497 -93 140 C-94.8125 136.8125 -94.8125 136.8125 -96 134 C-96.66 134.474375 -97.32 134.94875 -98 135.4375 C-101.7933028 137.41317854 -104.75524068 137.64027463 -109 138 C-109.33 139.32 -109.66 140.64 -110 142 C-110.66 142 -111.32 142 -112 142 C-112.99 144.97 -112.99 144.97 -114 148 C-114.66 148 -115.32 148 -116 148 C-116.4125 148.886875 -116.825 149.77375 -117.25 150.6875 C-118.91994746 153.84847198 -120.55218873 156.39920052 -123 159 C-123.99 159 -124.98 159 -126 159 C-126.04125 159.763125 -126.0825 160.52625 -126.125 161.3125 C-127 164 -127 164 -129.8125 165.5625 C-130.864375 166.036875 -131.91625 166.51125 -133 167 C-133.598125 167.70125 -134.19625 168.4025 -134.8125 169.125 C-137.76498982 171.65570556 -140.17771376 171.52162979 -143.9765625 171.62890625 C-144.64429688 171.75136719 -145.31203125 171.87382812 -146 172 C-146.66 172.99 -147.32 173.98 -148 175 C-149.953125 175.4140625 -149.953125 175.4140625 -152.25 175.625 C-155.37545304 176.20285707 -156.66675715 176.63028636 -158.8203125 179.01953125 C-159.82874093 180.58791617 -160.79564963 182.18409159 -161.7109375 183.80859375 C-162.98435054 185.97339592 -164.00930519 187.47169152 -166 189 C-168.72507798 189.39078556 -171.23121956 189.13616953 -174 189 C-174 189.66 -174 190.32 -174 191 C-173.34 191.66 -172.68 192.32 -172 193 C-172 194.32 -172 195.64 -172 197 C-171.67 197.66 -171.34 198.32 -171 199 C-171.33 199.66 -171.66 200.32 -172 201 C-171.113125 200.7525 -170.22625 200.505 -169.3125 200.25 C-166 200 -166 200 -163.1875 201.6875 C-161.05918383 203.93743424 -160.32347169 204.98093088 -160 208 C-159.34 208 -158.68 208 -158 208 C-157.566875 208.7425 -157.13375 209.485 -156.6875 210.25 C-155.13129477 213.15384669 -155.13129477 213.15384669 -152.3125 215.0625 C-151.549375 215.701875 -150.78625 216.34125 -150 217 C-150 218.32 -150 219.64 -150 221 C-149.34 221.33 -148.68 221.66 -148 222 C-146.8125 223.875 -146.8125 223.875 -146 226 C-146.33 226.99 -146.66 227.98 -147 229 C-146.34 229 -145.68 229 -145 229 C-144.67 229.66 -144.34 230.32 -144 231 C-143.21625 230.95875 -142.4325 230.9175 -141.625 230.875 C-139 231 -139 231 -137 233 C-134.72177233 236.4173415 -135.00491636 238.09143634 -135.12890625 242.06640625 C-134.95074967 244.73875499 -133.78036042 246.07127621 -132 248 C-132 248.66 -132 249.32 -132 250 C-131.34 250.33 -130.68 250.66 -130 251 C-129.75 256.625 -129.75 256.625 -132 260 C-131.95875 261.11375 -131.9175 262.2275 -131.875 263.375 C-132.0223124 267.64705968 -133.08316066 268.99200943 -136 272 C-135.34 272.66 -134.68 273.32 -134 274 C-133.34 274 -132.68 274 -132 274 C-132 274.66 -132 275.32 -132 276 C-131.34 276 -130.68 276 -130 276 C-129.67 276.99 -129.34 277.98 -129 279 C-126.1668838 280.62507196 -126.1668838 280.62507196 -123 282 C-122.2575 282.391875 -121.515 282.78375 -120.75 283.1875 C-119.01923345 284.14037044 -119.01923345 284.14037044 -117 284 C-117 285.0725 -117 286.145 -117 287.25 C-116.40093776 290.94351824 -116.40093776 290.94351824 -114.29296875 292.42578125 C-112.1480429 293.58380244 -110.39282262 294.50722948 -108 295 C-105.92404338 294.19902406 -105.92404338 294.19902406 -104 293 C-101.67793475 292.29508733 -99.34406932 291.62787571 -97 291 C-96.01 290.5978125 -96.01 290.5978125 -95 290.1875 C-91.02334844 289.81468892 -87.47506503 292.26246748 -84 294 C-83.875 296.375 -83.875 296.375 -84 299 C-85.33333333 300.33333333 -86.66666667 301.66666667 -88 303 C-88.99 302.67 -89.98 302.34 -91 302 C-91 302.66 -91 303.32 -91 304 C-91.66 304 -92.32 304 -93 304 C-93.33 304.66 -93.66 305.32 -94 306 C-94.99 306 -95.98 306 -97 306 C-97.99 304.515 -97.99 304.515 -99 303 C-100.65 302.67 -102.3 302.34 -104 302 C-104.99 307.94 -104.99 307.94 -106 314 C-105.34 314.33 -104.68 314.66 -104 315 C-103.71125 314.38125 -103.4225 313.7625 -103.125 313.125 C-102 311 -102 311 -100 309 C-97.5625 309.0625 -97.5625 309.0625 -95 310 C-93.3125 312.375 -93.3125 312.375 -92 315 C-91.01 316.485 -91.01 316.485 -90 318 C-89.00646364 323.06703546 -87.60570846 330.21141693 -90 335 C-92.30965848 336.05352843 -94.6429774 337.05719096 -97 338 C-97.33 337.67 -97.66 337.34 -98 337 C-98.33 337.99 -98.66 338.98 -99 340 C-98.34 340.33 -97.68 340.66 -97 341 C-97.66 341 -98.32 341 -99 341 C-98.95875 341.763125 -98.9175 342.52625 -98.875 343.3125 C-99 346 -99 346 -101 349 C-100.13375 349.061875 -99.2675 349.12375 -98.375 349.1875 C-93.90077483 350.26462828 -92.17665646 351.67207418 -89 355 C-88.3125 357.625 -88.3125 357.625 -89 360 C-91.3832946 361.81883009 -92.95818337 363 -96 363 C-96.66 363.99 -97.32 364.98 -98 366 C-98.66 366 -99.32 366 -100 366 C-100.33 366.66 -100.66 367.32 -101 368 C-101.66 368 -102.32 368 -103 368 C-102.67 368.99 -102.34 369.98 -102 371 C-103.0625 373.125 -103.0625 373.125 -105 375 C-110.22666667 376.38666667 -110.22666667 376.38666667 -113 375 C-113.33 375.99 -113.66 376.98 -114 378 C-116 379 -116 379 -118 378.4375 C-120.8504756 376.38872066 -121.19494327 374.35440302 -122 371 C-122 369.68 -122 368.36 -122 367 C-121.34 366.67 -120.68 366.34 -120 366 C-119.21655744 364.00708223 -118.51983635 361.97948177 -117.875 359.9375 C-117.52179688 358.83277344 -117.16859375 357.72804688 -116.8046875 356.58984375 C-116.53914062 355.73519531 -116.27359375 354.88054687 -116 354 C-115.34 354 -114.68 354 -114 354 C-113.34 351.03 -112.68 348.06 -112 345 C-112.66 345 -113.32 345 -114 345 C-114.33 345.99 -114.66 346.98 -115 348 C-115.99 348.33 -116.98 348.66 -118 349 C-119.38283974 351.25415883 -120.47828731 353.58507452 -121.62109375 355.96875 C-123 358 -123 358 -124.95703125 358.74609375 C-125.96830078 358.87177734 -125.96830078 358.87177734 -127 359 C-128.0725 359.185625 -129.145 359.37125 -130.25 359.5625 C-131.1575 359.706875 -132.065 359.85125 -133 360 C-135.92160156 355.61759767 -135.05148286 351.68854706 -134.875 346.54296875 C-135.00175729 342.95019187 -135.76373122 340.34942588 -137 337 C-137.125 334.125 -137.125 334.125 -137 332 C-136.38511719 331.81824219 -135.77023438 331.63648438 -135.13671875 331.44921875 C-134.32847656 331.19785156 -133.52023438 330.94648438 -132.6875 330.6875 C-131.88699219 330.44386719 -131.08648437 330.20023437 -130.26171875 329.94921875 C-127.96526437 329.16413916 -127.96526437 329.16413916 -126.5859375 327.5078125 C-124.29461312 325.32936124 -121.98006105 324.93797375 -118.9375 324.1875 C-117.87402344 323.91292969 -116.81054688 323.63835937 -115.71484375 323.35546875 C-114.37099609 323.17951172 -114.37099609 323.17951172 -113 323 C-112.34 323.66 -111.68 324.32 -111 325 C-110.01 321.7 -109.02 318.4 -108 315 C-109.5675 315.20625 -111.135 315.4125 -112.75 315.625 C-116.5684021 316.12742133 -118.6853333 316.02907167 -122 314 C-122 314.66 -122 315.32 -122 316 C-127.04334018 319.10359396 -131.22941644 319.60014069 -137 319 C-137.66 318.67 -138.32 318.34 -139 318 C-139.33 318.66 -139.66 319.32 -140 320 C-141.65 320 -143.3 320 -145 320 C-145.144375 320.928125 -145.28875 321.85625 -145.4375 322.8125 C-146 326 -146 326 -147 329 C-146.835 329.825 -146.67 330.65 -146.5 331.5 C-146 334 -146 334 -147 337 C-152.06562383 337.25328119 -156.15758367 336.33583899 -161 335 C-161 335.66 -161 336.32 -161 337 C-167.93126989 336.85252617 -172.00617635 333.64018377 -177 329 C-179.05707512 324.88584977 -178.16741779 320.5810382 -176.9375 316.3125 C-175.99444795 312.98038277 -176.06081425 312.13061916 -177 309 C-176.5628866 304.51958763 -176.5628866 304.51958763 -174.375 302.5 C-173.92125 302.005 -173.4675 301.51 -173 301 C-173.23043864 298.34533951 -173.23043864 298.34533951 -174 296 C-175.36125 296.061875 -175.36125 296.061875 -176.75 296.125 C-179.89640926 296.00398426 -181.42156198 295.71895868 -184 294 C-184.33 293.34 -184.66 292.68 -185 292 C-185.66 292.33 -186.32 292.66 -187 293 C-189.36889833 290.84645607 -190.61249037 288.86173862 -192 286 C-192.495 285.360625 -192.99 284.72125 -193.5 284.0625 C-195 282 -195 282 -195.8125 279.4375 C-197.45673236 276.06249674 -199.6713749 275.59774005 -203 274 C-206.25372024 271.00315241 -206.93717082 269.4947798 -207.5 265.0625 C-207.28526335 260.79162658 -205.44320931 258.49029901 -203 255 C-200.88449491 249.47209322 -199.63817529 243.87121269 -199 238 C-199.66 238 -200.32 238 -201 238 C-202.4606285 235.35261084 -203 234.10551666 -203 231 C-201.5 229.3125 -201.5 229.3125 -200 228 C-200.66 228 -201.32 228 -202 228 C-204.96662233 226.96168219 -206.75758839 226.24241161 -209 224 C-210.91180549 223.71994942 -210.91180549 223.71994942 -213 223.8125 C-213.70125 223.81894531 -214.4025 223.82539063 -215.125 223.83203125 C-217.09056373 223.89293867 -217.09056373 223.89293867 -219 225 C-220.98365699 227.76302634 -220.98365699 227.76302634 -221.875 230.125 C-223 232 -223 232 -225.125 232.75 C-225.74375 232.8325 -226.3625 232.915 -227 233 C-227 233.66 -227 234.32 -227 235 C-227.63808594 235.20753906 -228.27617187 235.41507813 -228.93359375 235.62890625 C-231.48256768 236.57930371 -233.71745294 237.51419106 -236 239 C-237.23239871 242.53540765 -237.23239871 242.53540765 -237 246 C-237 246.66 -237 247.32 -237 248 C-236.01 248.33 -235.02 248.66 -234 249 C-231.84115905 251.15884095 -230.93771609 252.17130948 -230 255 C-230.08156419 258.30549603 -230.45446857 261.52106275 -230.8359375 264.8046875 C-231.06607467 269.28688278 -229.81188819 271.94137045 -228 276 C-227.5625 278.75 -227.5625 278.75 -228 281 C-228.66 281.54011719 -229.32 282.08023437 -230 282.63671875 C-232.79062412 285.93423358 -232.55236478 288.94589439 -232.4375 293.0625 C-232.44458984 293.78244141 -232.45167969 294.50238281 -232.45898438 295.24414062 C-232.47267009 299.35863649 -232.47267009 299.35863649 -230.44921875 302.78125 C-229.97097656 303.1834375 -229.49273437 303.585625 -229 304 C-229.25561323 306.3431213 -229.59270772 308.67843403 -230 311 C-229.70955086 312.34332728 -229.39044206 313.68225804 -229 315 C-229.33 315.66 -229.66 316.32 -230 317 C-229.484375 317.556875 -228.96875 318.11375 -228.4375 318.6875 C-227 321 -227 321 -227.3125 323.75 C-227.539375 324.4925 -227.76625 325.235 -228 326 C-228.99 326.33 -229.98 326.66 -231 327 C-230.814375 327.7425 -230.62875 328.485 -230.4375 329.25 C-229.99999726 332.00001724 -229.94461707 333.44949126 -231 336 C-231.99 336.66 -232.98 337.32 -234 338 C-233.814375 338.99 -233.62875 339.98 -233.4375 341 C-232.97934378 343.93933989 -233.15883843 346.21891603 -233.75 349.125 C-233.8325 350.40375 -233.915 351.6825 -234 353 C-233.236875 353.763125 -232.47375 354.52625 -231.6875 355.3125 C-227.69594721 359.30405279 -227.63819239 363.54568135 -227 369 C-226.88914062 369.89589844 -226.77828125 370.79179687 -226.6640625 371.71484375 C-226.41944591 373.80730728 -226.20622252 375.90340439 -226 378 C-230 378 -230 378 -232 377 C-232.28875 376.175 -232.5775 375.35 -232.875 374.5 C-233.74151926 371.90610087 -233.74151926 371.90610087 -235.8125 371 C-238.15991978 370.80531506 -238.15991978 370.80531506 -240.375 372.5 C-243.75502059 374.43144034 -245.29903957 373.94492607 -249 373 C-249.78375 372.814375 -250.5675 372.62875 -251.375 372.4375 C-251.91125 372.293125 -252.4475 372.14875 -253 372 C-253.515625 372.99 -254.03125 373.98 -254.5625 375 C-257 378 -257 378 -260.375 378.625 C-264.51297083 377.91155675 -266.75549719 376.62650228 -270 374 C-270.33 373.34 -270.66 372.68 -271 372 C-271.886875 371.87625 -272.77375 371.7525 -273.6875 371.625 C-278.42058631 370.73196485 -283.16012571 368.00923428 -286 364 C-285.6875 361.8125 -285.6875 361.8125 -285 360 C-284.34 360 -283.68 360 -283 360 C-283.17917969 359.24074219 -283.35835937 358.48148437 -283.54296875 357.69921875 C-283.75566406 356.70535156 -283.96835937 355.71148437 -284.1875 354.6875 C-284.40792969 353.70136719 -284.62835938 352.71523438 -284.85546875 351.69921875 C-285 349 -285 349 -283.67578125 347.14453125 C-282 346 -282 346 -280 346 C-280 345.34 -280 344.68 -280 344 C-278.5 342.375 -278.5 342.375 -277 341 C-277.66 340.67 -278.32 340.34 -279 340 C-279 337.09715641 -278.93627641 334.32037956 -278.6875 331.4375 C-278.60048828 330.29087891 -278.60048828 330.29087891 -278.51171875 329.12109375 C-277.89881869 326.58059962 -276.92050185 325.71099256 -275 324 C-274.02543732 321.5635933 -273.94251644 320.26586148 -274.5 317.6875 C-275.33966919 313.17427811 -274.17336953 308.89836941 -273.3125 304.4375 C-272.96716017 300.63876189 -273.62391814 298.51665365 -275 295 C-275.34820041 293.33637583 -275.68404492 291.67004829 -276 290 C-276.495 288.515 -276.495 288.515 -277 287 C-277.66 286.67 -278.32 286.34 -279 286 C-281.80447813 280.39104373 -280.78917907 274.99349509 -280 269 C-286.44991279 267.1039594 -286.44991279 267.1039594 -293 268 C-293.99 268 -294.98 268 -296 268 C-298.10820797 268.3185177 -298.10820797 268.3185177 -300 269 C-300.33 269.66 -300.66 270.32 -301 271 C-303.31 270.67 -305.62 270.34 -308 270 C-310.46705648 264.2970834 -312.28296699 259.21428607 -313 253 C-313.4125 252.030625 -313.825 251.06125 -314.25 250.0625 C-315.3469313 245.58336385 -313.8637386 243.15757072 -312 239 C-313.32 239 -314.64 239 -316 239 C-316.22384382 237.27277272 -316.42839969 235.54303993 -316.625 233.8125 C-316.74101562 232.84957031 -316.85703125 231.88664063 -316.9765625 230.89453125 C-317.00194942 227.75924677 -316.34359283 225.80513465 -315 223 C-314.34 223 -313.68 223 -313 223 C-313 222.34 -313 221.68 -313 221 C-310.69 221 -308.38 221 -306 221 C-305.01 219.02 -304.02 217.04 -303 215 C-301.35 215 -299.7 215 -298 215 C-298.03480469 214.41734375 -298.06960938 213.8346875 -298.10546875 213.234375 C-298.39783685 204.37979831 -297.13400804 195.41870727 -292 188 C-291.29875 187.67 -290.5975 187.34 -289.875 187 C-287.75022304 186.13381557 -287.75022304 186.13381557 -287.125 183.625 C-286.77446765 181.02870336 -286.77446765 181.02870336 -288.01953125 179.1171875 C-289.20303709 176.56156931 -289.01905486 175.24874265 -288.5625 172.5 C-288.03348727 169.24796385 -288.16837576 167.16366143 -289 164 C-289.1910719 161.83815797 -289.31031888 159.66930537 -289.375 157.5 C-289.44847656 155.81390625 -289.44847656 155.81390625 -289.5234375 154.09375 C-288.83579863 150.0294964 -287.26335444 149.35794305 -284 147 C-282.54506645 144.62651041 -282.54506645 144.62651041 -281.5 142.0625 C-279.48808898 137.77295387 -277.6693488 134.99341613 -274 132 C-273.01 131.67 -272.02 131.34 -271 131 C-270.26676204 128.98491642 -270.26676204 128.98491642 -270 127 C-268.02 126.505 -268.02 126.505 -266 126 C-266 125.34 -266 124.68 -266 124 C-265.01 124.33 -264.02 124.66 -263 125 C-263.309375 124.236875 -263.61875 123.47375 -263.9375 122.6875 C-265.78600394 116.27210397 -266.07221192 109.65553178 -266 103 C-266.99 102.67 -267.98 102.34 -269 102 C-269.33 98.37 -269.66 94.74 -270 91 C-266 90 -266 90 -263.75 90.9375 C-263.1725 91.288125 -262.595 91.63875 -262 92 C-261.78169488 87.0198063 -261.78169488 87.0198063 -263.1875 82.3125 C-263.455625 81.549375 -263.72375 80.78625 -264 80 C-262.8125 78.25 -262.8125 78.25 -261 76 C-259.8509871 73.0453954 -258.91426445 70.03457989 -258 67 C-255.525 66.505 -255.525 66.505 -253 66 C-252.9231465 63.01967084 -252.9231465 63.01967084 -253.4375 60.1875 C-252.85509319 55.94425039 -251.0659992 54.7885654 -247.82421875 52.19921875 C-246 51 -246 51 -243 50 C-241.97299556 47.67108904 -241.97299556 47.67108904 -241.3125 44.9375 C-241.06113281 44.01839844 -240.80976563 43.09929688 -240.55078125 42.15234375 C-240.36902344 41.44207031 -240.18726563 40.73179688 -240 40 C-238.35 39.67 -236.7 39.34 -235 39 C-234.5875 39.9075 -234.175 40.815 -233.75 41.75 C-232.08307811 44.84571207 -230.79433073 46.88308278 -228 49 C-225.82676431 48.85318539 -225.82676431 48.85318539 -224 48 C-223.67 48 -223.34 48 -223 48 C-221.68011059 46.58836939 -220.39414383 45.1449234 -219.125 43.6875 C-215.11940414 39.09806267 -215.11940414 39.09806267 -213.2734375 37.58203125 C-211.34558903 35.18700477 -211.58890456 33.02275505 -211.5 30 C-211.33775934 24.48381743 -211.33775934 24.48381743 -209.69921875 22.13671875 C-206.94433767 20.2937983 -204.20749297 20.81844379 -201 21 C-201 21.66 -201 22.32 -201 23 C-200.31292969 23 -199.62585938 23 -198.91796875 23 C-188 23 -188 23 -184 25 C-183.01 25 -182.02 25 -181 25 C-181 25.66 -181 26.32 -181 27 C-180.01 27.33 -179.02 27.66 -178 28 C-178 28.99 -178 29.98 -178 31 C-177.4225 31.28875 -176.845 31.5775 -176.25 31.875 C-174.16666667 32.91666667 -172.08333333 33.95833333 -170 35 C-170 34.01 -170 33.02 -170 32 C-166.93744039 31.9729509 -163.8751214 31.95313702 -160.8125 31.9375 C-159.94818359 31.92912109 -159.08386719 31.92074219 -158.19335938 31.91210938 C-153.96953861 31.89592615 -150.13003776 32.02607265 -146 33 C-143.46847306 33.21063552 -140.93822713 33.37495743 -138.40234375 33.5234375 C-135.58314508 34.08269317 -134.23392923 35.24411324 -132 37 C-129.6693782 37.35179197 -127.33564933 37.68330179 -125 38 C-122.58334451 38.86980791 -120.32935198 39.9066307 -118 41 C-118 41.66 -118 42.32 -118 43 C-113.0164119 43.90610693 -108.46903839 44.11588409 -103.4375 43.5625 C-102.67308594 43.48128906 -101.90867188 43.40007813 -101.12109375 43.31640625 C-98.8178068 43.03526864 -98.8178068 43.03526864 -96 42 C-95.67 41.34 -95.34 40.68 -95 40 C-93.68 40.33 -92.36 40.66 -91 41 C-90.67 40.34 -90.34 39.68 -90 39 C-87.23723823 39.52268466 -84.6739124 40.10869587 -82 41 C-82 41.66 -82 42.32 -82 43 C-78.7 42.67 -75.4 42.34 -72 42 C-72 42.66 -72 43.32 -72 44 C-71.01 43.67 -70.02 43.34 -69 43 C-68.01 43.66 -67.02 44.32 -66 45 C-63.6317817 45.56920063 -63.6317817 45.56920063 -61.0625 45.8125 C-59.78052734 45.97685547 -59.78052734 45.97685547 -58.47265625 46.14453125 C-55.39774932 45.96479735 -54.36336693 44.89635431 -52 43 C-49.8515625 42.41015625 -49.8515625 42.41015625 -47.625 42.0625 C-43.33353598 41.2309848 -40.56396022 39.56936667 -37 37 C-36.2575 36.855625 -35.515 36.71125 -34.75 36.5625 C-34.1725 36.376875 -33.595 36.19125 -33 36 C-32.690625 35.175 -32.38125 34.35 -32.0625 33.5 C-31.711875 32.675 -31.36125 31.85 -31 31 C-28.375 30.1875 -28.375 30.1875 -26 30 C-25.36070591 27.6254791 -24.92502017 25.38766471 -24.625 22.9375 C-23.95881539 19.80643234 -23.61422834 18.77394066 -21 17 C-18.3125 16.3125 -18.3125 16.3125 -16 16 C-16 16.66 -16 17.32 -16 18 C-11.10037316 16.04392038 -11.10037316 16.04392038 -8.1953125 11.98828125 C-7.78717745 9.99414773 -7.39289042 7.99719298 -7 6 C-5.515 5.505 -5.515 5.505 -4 5 C-2.61423077 3.37667033 -1.27358732 1.71275535 0 0 Z M-180 186 C-179.34 187.32 -178.68 188.64 -178 190 C-176.68 189.67 -175.36 189.34 -174 189 C-174.33 188.01 -174.66 187.02 -175 186 C-176.65 186 -178.3 186 -180 186 Z M-112 328 C-112 328.66 -112 329.32 -112 330 C-111.34 330 -110.68 330 -110 330 C-110 329.34 -110 328.68 -110 328 C-110.66 328 -111.32 328 -112 328 Z M-111 331 C-111.33 331.99 -111.66 332.98 -112 334 C-111.34 334 -110.68 334 -110 334 C-110.33 333.01 -110.66 332.02 -111 331 Z M-110 334 C-110.66 334.66 -111.32 335.32 -112 336 C-111.34 337.32 -110.68 338.64 -110 340 C-109.67 338.02 -109.34 336.04 -109 334 C-109.33 334 -109.66 334 -110 334 Z " fill="#000000" transform="translate(354,8)"/>
<path d="M0 0 C1.61328125 1.7421875 1.61328125 1.7421875 2.6875 3.125 C3.2959375 2.79113281 3.904375 2.45726562 4.53125 2.11328125 C7.38099565 0.80714783 8.73665985 1.16597695 11.6875 2.125 C14 3.6875 14 3.6875 15.6875 5.125 C15.3575 7.765 15.0275 10.405 14.6875 13.125 C15.3475 12.795 16.0075 12.465 16.6875 12.125 C19.76442308 17.41730769 19.76442308 17.41730769 19.375 21 C19.148125 21.70125 18.92125 22.4025 18.6875 23.125 C19.3475 23.455 20.0075 23.785 20.6875 24.125 C19.6875 27.125 19.6875 27.125 17.6875 28.125 C17.3575 29.115 17.0275 30.105 16.6875 31.125 C15.3675 30.795 14.0475 30.465 12.6875 30.125 C12.6875 29.465 12.6875 28.805 12.6875 28.125 C9.65794803 28.9949161 9.65794803 28.9949161 7.1875 30.75 C6.3625 31.20375 5.5375 31.6575 4.6875 32.125 C3.2025 31.63 3.2025 31.63 1.6875 31.125 C1.6875 29.145 1.6875 27.165 1.6875 25.125 C2.3475 24.795 3.0075 24.465 3.6875 24.125 C4.3475 23.135 5.0075 22.145 5.6875 21.125 C6.6775 21.125 7.6675 21.125 8.6875 21.125 C8.996875 20.485625 9.30625 19.84625 9.625 19.1875 C10.6875 17.125 10.6875 17.125 11.6875 16.125 C8.7175 16.125 5.7475 16.125 2.6875 16.125 C2.6875 17.445 2.6875 18.765 2.6875 20.125 C0.1875 22.375 0.1875 22.375 -2.3125 24.125 C-6.97800523 22.68945993 -6.97800523 22.68945993 -8.3125 20.4375 C-8.3125 16.87226375 -6.85067147 14.32439665 -5.3125 11.125 C-9.13919043 14.54888092 -11.03528474 17.13224943 -12.3125 22.125 C-14.9525 22.125 -17.5925 22.125 -20.3125 22.125 C-23.14030821 16.35155825 -24.35769049 11.87026591 -22.5625 5.4375 C-20.49869606 1.61946271 -18.46952964 -0.47268643 -14.32421875 -1.9140625 C-4.24727665 -3.69025676 -4.24727665 -3.69025676 0 0 Z M9.6875 21.125 C10.6875 24.125 10.6875 24.125 10.6875 24.125 Z " fill="#010101" transform="translate(266.3125,157.875)"/>
<path d="M0 0 C1.65 0 3.3 0 5 0 C5.495 2.97 5.495 2.97 6 6 C4.02 6.33 2.04 6.66 0 7 C-1.44524884 11.42605006 -1.44524884 11.42605006 -2 16 C-3.32 16.33 -4.64 16.66 -6 17 C-6 16.34 -6 15.68 -6 15 C-6.99 15.33 -7.98 15.66 -9 16 C-11.1875 15.5625 -11.1875 15.5625 -13 15 C-13.33 16.32 -13.66 17.64 -14 19 C-20.625 21 -20.625 21 -24 21 C-25.67099977 21.31088368 -27.33871537 21.64080332 -29 22 C-30.03864166 18.88407501 -30.09036928 17.9737344 -29 15 C-28.34 14.67 -27.68 14.34 -27 14 C-26.7525 13.21625 -26.505 12.4325 -26.25 11.625 C-24.55321941 8.06176077 -22.60897922 7.3994001 -19 6 C-18.01 6 -17.02 6 -16 6 C-15.67 5.34 -15.34 4.68 -15 4 C-15 4.66 -15 5.32 -15 6 C-13.35 6 -11.7 6 -10 6 C-10 5.34 -10 4.68 -10 4 C-7.36 4 -4.72 4 -2 4 C-1.34 2.68 -0.68 1.36 0 0 Z " fill="#020202" transform="translate(214,107)"/>
<path d="M0 0 C2.83857423 2.83857423 2.90046025 6.13326348 3 10 C2.67 10.99 2.34 11.98 2 13 C2.27571139 15.00875442 2.60235737 17.01178687 3 19 C-1.01804691 19.84098656 -4.01803543 20.05404945 -8 19 C-8 18.01 -8 17.02 -8 16 C-9.65 16 -11.3 16 -13 16 C-14.6460338 13.40099926 -15.08032256 11.55614644 -14.640625 8.51171875 C-12.84993255 1.63744942 -12.84993255 1.63744942 -9.75 -0.6875 C-6.27679567 -1.08218231 -3.40580067 -0.77112468 0 0 Z " fill="#020202" transform="translate(205,355)"/>
<path d="M0 0 C2.69917363 0.96893412 3.76314187 1.56279116 5.4375 3.875 C7.18191098 8.13911572 7.89014028 12.31366899 8.4375 16.875 C5.26658279 16.17035173 2.31981132 15.39200596 -0.5625 13.875 C-1.25003301 12.21683216 -1.91811283 10.55040664 -2.5625 8.875 C-4.60355639 7.98806697 -4.60355639 7.98806697 -6.5625 7.875 C-6.8125 5.5625 -6.8125 5.5625 -6.5625 2.875 C-4.36297115 0.43107906 -3.30340795 -0.16114185 0 0 Z M-1.5625 6.875 C-0.5625 8.875 -0.5625 8.875 -0.5625 8.875 Z " fill="#020202" transform="translate(292.5625,189.125)"/>
<path d="M0 0 C0.3125 2.75 0.3125 2.75 0 6 C-2.375 8.1875 -2.375 8.1875 -5 10 C-5.99 11.485 -5.99 11.485 -7 13 C-8.32 12.67 -9.64 12.34 -11 12 C-12.00945105 9.37542726 -11.96419225 7.70160208 -11.625 4.875 C-10 2 -10 2 -7.89453125 1.171875 C-2.62946429 0 -2.62946429 0 0 0 Z " fill="#020202" transform="translate(267,184)"/>
<path d="M0 0 C-0.33 2.31 -0.66 4.62 -1 7 C-3.3125 7.625 -3.3125 7.625 -6 8 C-6.99 7.34 -7.98 6.68 -9 6 C-8.625 3.5625 -8.625 3.5625 -8 1 C-5.29120665 -0.35439668 -2.99066732 -0.06501451 0 0 Z " fill="#010101" transform="translate(188,103)"/>
<path d="M0 0 C0.99 0.495 0.99 0.495 2 1 C1.67 1.66 1.34 2.32 1 3 C0.67 2.01 0.34 1.02 0 0 Z " fill="#000000" transform="translate(197,217)"/>
<path d="M0 0 C4 1 4 1 4 1 Z " fill="#000000" transform="translate(183,207)"/>
<path d="M0 0 C0.66 0 1.32 0 2 0 C1.67 0.66 1.34 1.32 1 2 C0.67 1.34 0.34 0.68 0 0 Z " fill="#000000" transform="translate(244,301)"/>
<path d="" fill="#000000" transform="translate(0,0)"/>
<path d="M0 0 C0.99 0.495 0.99 0.495 2 1 C1.01 1.495 1.01 1.495 0 2 C0 1.34 0 0.68 0 0 Z " fill="#000000" transform="translate(284,186)"/>
<path d="M0 0 C0.33 0.66 0.66 1.32 1 2 C0.34 1.67 -0.32 1.34 -1 1 C-0.67 0.67 -0.34 0.34 0 0 Z " fill="#000000" transform="translate(234,163)"/>
<path d="M0 0 C0.33 0.66 0.66 1.32 1 2 C0.34 1.67 -0.32 1.34 -1 1 C-0.67 0.67 -0.34 0.34 0 0 Z " fill="#000000" transform="translate(245,146)"/>
<path d="" fill="#000000" transform="translate(0,0)"/>
<path d="" fill="#000000" transform="translate(0,0)"/>
<path d="" fill="#000000" transform="translate(0,0)"/>
<path d="M0 0 C2 1 2 1 2 1 Z " fill="#000000" transform="translate(259,317)"/>
<path d="M0 0 C2 1 2 1 2 1 Z " fill="#000000" transform="translate(270,159)"/>
<path d="M0 0 C2 1 2 1 2 1 Z " fill="#000000" transform="translate(197,144)"/>
<path d="M0 0 C2 1 2 1 2 1 Z " fill="#000000" transform="translate(192,143)"/>
<path d="" fill="#000000" transform="translate(0,0)"/>
<path d="" fill="#000000" transform="translate(0,0)"/>
<path d="" fill="#000000" transform="translate(0,0)"/>
<path d="" fill="#000000" transform="translate(0,0)"/>
<path d="" fill="#000000" transform="translate(0,0)"/>
<path d="" fill="#000000" transform="translate(0,0)"/>
<path d="" fill="#000000" transform="translate(0,0)"/>
<path d="" fill="#000000" transform="translate(0,0)"/>
<path d="" fill="#000000" transform="translate(0,0)"/>
<path d="" fill="#000000" transform="translate(0,0)"/>
<path d="" fill="#000000" transform="translate(0,0)"/>
<path d="" fill="#000000" transform="translate(0,0)"/>
<path d="" fill="#000000" transform="translate(0,0)"/>
<path d="" fill="#000000" transform="translate(0,0)"/>
<path d="" fill="#000000" transform="translate(0,0)"/>
<path d="" fill="#000000" transform="translate(0,0)"/>
<path d="" fill="#000000" transform="translate(0,0)"/>
<path d="" fill="#000000" transform="translate(0,0)"/>
<path d="" fill="#000000" transform="translate(0,0)"/>
<path d="" fill="#000000" transform="translate(0,0)"/>
<path d="" fill="#000000" transform="translate(0,0)"/>
<path d="" fill="#000000" transform="translate(0,0)"/>
<path d="" fill="#000000" transform="translate(0,0)"/>
<path d="" fill="#000000" transform="translate(0,0)"/>
<path d="" fill="#000000" transform="translate(0,0)"/>
<path d="" fill="#000000" transform="translate(0,0)"/>
<path d="" fill="#000000" transform="translate(0,0)"/>
<path d="" fill="#000000" transform="translate(0,0)"/>
<path d="" fill="#000000" transform="translate(0,0)"/>
<path d="" fill="#000000" transform="translate(0,0)"/>
<path d="" fill="#000000" transform="translate(0,0)"/>
<path d="" fill="#000000" transform="translate(0,0)"/>
<path d="" fill="#000000" transform="translate(0,0)"/>
<path d="" fill="#000000" transform="translate(0,0)"/>
<path d="" fill="#000000" transform="translate(0,0)"/>
<path d="" fill="#000000" transform="translate(0,0)"/>
<path d="" fill="#000000" transform="translate(0,0)"/>
<path d="" fill="#000000" transform="translate(0,0)"/>
<path d="" fill="#000000" transform="translate(0,0)"/>
<path d="" fill="#000000" transform="translate(0,0)"/>
<path d="" fill="#000000" transform="translate(0,0)"/>
<path d="" fill="#000000" transform="translate(0,0)"/>
<path d="" fill="#000000" transform="translate(0,0)"/>
<path d="" fill="#000000" transform="translate(0,0)"/>
<path d="" fill="#000000" transform="translate(0,0)"/>
<path d="" fill="#000000" transform="translate(0,0)"/>
<path d="" fill="#000000" transform="translate(0,0)"/>
<path d="" fill="#000000" transform="translate(0,0)"/>
<path d="" fill="#000000" transform="translate(0,0)"/>
<path d="" fill="#000000" transform="translate(0,0)"/>
<path d="" fill="#000000" transform="translate(0,0)"/>
<path d="" fill="#000000" transform="translate(0,0)"/>
<path d="" fill="#000000" transform="translate(0,0)"/>
<path d="" fill="#000000" transform="translate(0,0)"/>
<path d="" fill="#000000" transform="translate(0,0)"/>
<path d="" fill="#000000" transform="translate(0,0)"/>
<path d="" fill="#000000" transform="translate(0,0)"/>
<path d="" fill="#000000" transform="translate(0,0)"/>
<path d="" fill="#000000" transform="translate(0,0)"/>
<path d="" fill="#000000" transform="translate(0,0)"/>
<path d="" fill="#000000" transform="translate(0,0)"/>
<path d="" fill="#000000" transform="translate(0,0)"/>
<path d="" fill="#000000" transform="translate(0,0)"/>
<path d="" fill="#000000" transform="translate(0,0)"/>
<path d="" fill="#000000" transform="translate(0,0)"/>
<path d="" fill="#000000" transform="translate(0,0)"/>
<path d="" fill="#000000" transform="translate(0,0)"/>
<path d="" fill="#000000" transform="translate(0,0)"/>
<path d="" fill="#000000" transform="translate(0,0)"/>
<path d="" fill="#000000" transform="translate(0,0)"/>
<path d="" fill="#000000" transform="translate(0,0)"/>
<path d="" fill="#000000" transform="translate(0,0)"/>
<path d="" fill="#000000" transform="translate(0,0)"/>
<path d="" fill="#000000" transform="translate(0,0)"/>
<path d="" fill="#000000" transform="translate(0,0)"/>
<path d="" fill="#000000" transform="translate(0,0)"/>
<path d="" fill="#000000" transform="translate(0,0)"/>
<path d="" fill="#000000" transform="translate(0,0)"/>
<path d="" fill="#000000" transform="translate(0,0)"/>
<path d="" fill="#000000" transform="translate(0,0)"/>
<path d="" fill="#000000" transform="translate(0,0)"/>
<path d="" fill="#000000" transform="translate(0,0)"/>
<path d="" fill="#000000" transform="translate(0,0)"/>
<path d="" fill="#000000" transform="translate(0,0)"/>
<path d="" fill="#000000" transform="translate(0,0)"/>
<path d="" fill="#000000" transform="translate(0,0)"/>
<path d="" fill="#000000" transform="translate(0,0)"/>
<path d="" fill="#000000" transform="translate(0,0)"/>
<path d="" fill="#000000" transform="translate(0,0)"/>
<path d="" fill="#000000" transform="translate(0,0)"/>
<path d="" fill="#000000" transform="translate(0,0)"/>
</svg>
